<?xml version="1.0"?>
<svg xmlns="http://www.w3.org/2000/svg" xmlns:xlink="http://www.w3.org/1999/xlink" xmlns:svgjs="http://svgjs.com/svgjs" version="1.1" width="512" height="512" x="0" y="0" viewBox="0 0 512 512" style="enable-background:new 0 0 512 512" xml:space="preserve" class=""><rect width="512" height="512" rx="20" ry="20" fill="#484037" shape="rounded"/><g transform="matrix(0.7,0,0,0.7,76.79999198913575,76.79984779357912)"><g xmlns="http://www.w3.org/2000/svg"><g><g><g><path d="m118.259 145.083h-76.412v-46.638c0-7.566 6.134-13.7 13.7-13.7h49.012c7.566 0 13.7 6.134 13.7 13.7z" fill="#60a0f7" data-original="#60a0f7" style="" class=""/><g><path d="m375.12 141.005h-238.24l37.388-81.275c3.848-8.365 12.214-13.725 21.422-13.725h120.62c9.208 0 17.574 5.36 21.422 13.725z" fill="#c9e0fd" data-original="#c9e0fd" style="" class=""/><path d="m337.732 59.731c-3.848-8.365-12.214-13.726-21.422-13.726h-55c9.208 0 17.574 5.36 21.422 13.726l37.388 81.274h55z" fill="#9bc4f9" data-original="#9bc4f9" style="" class=""/><path d="m470.684 465.995h-429.368c-18.676 0-33.816-15.14-33.816-33.816v-283.449c0-18.676 15.14-33.816 33.816-33.816h429.367c18.676 0 33.816 15.14 33.816 33.816v283.448c.001 18.677-15.139 33.817-33.815 33.817z" fill="#eaf2ff" data-original="#eaf2ff" style="" class=""/><path d="m470.684 114.914h-55c18.676 0 33.816 15.14 33.816 33.816v283.448c0 18.676-15.14 33.816-33.816 33.816h55c18.676 0 33.816-15.14 33.816-33.816v-283.448c0-18.676-15.14-33.816-33.816-33.816z" fill="#c9e0fd" data-original="#c9e0fd" style="" class=""/><path d="m7.5 180.343h497v220.224h-497z" fill="#e28424" data-original="#e28424" style="" class=""/><path d="m449.5 180.343h55v220.224h-55z" fill="#df751c" data-original="#df751c" style="" class=""/></g><g><circle cx="256" cy="297.884" fill="#c9e0fd" r="137.741" data-original="#c9e0fd" style="" class=""/><circle cx="256" cy="297.884" fill="#9bc4f9" r="83.814" data-original="#9bc4f9" style="" class=""/><path d="m256 214.07c-9.506 0-18.633 1.605-27.151 4.522 32.958 11.284 56.663 42.51 56.663 79.293s-23.705 68.009-56.663 79.292c8.518 2.916 17.644 4.522 27.151 4.522 46.289 0 83.814-37.525 83.814-83.814s-37.525-83.815-83.814-83.815z" fill="#7fb2f9" data-original="#7fb2f9" style=""/></g></g></g></g><g><g><path d="m447 140h-49.333c-4.143 0-7.5 3.357-7.5 7.5s3.357 7.5 7.5 7.5h49.333c4.143 0 7.5-3.357 7.5-7.5s-3.357-7.5-7.5-7.5z" fill="#000000" data-original="#000000" style=""/><path d="m470.684 107.414h-102.761l-23.377-50.818c-5.056-10.989-16.14-18.091-28.236-18.091h-120.62c-12.097 0-23.181 7.102-28.236 18.091l-23.377 50.818h-18.318v-8.969c0-11.689-9.51-21.2-21.2-21.2h-49.012c-11.689 0-21.2 9.511-21.2 21.2v9.568c-19.473 3.324-34.347 20.311-34.347 40.717v283.448c0 22.782 18.535 41.316 41.316 41.316h429.367c22.782 0 41.316-18.534 41.316-41.316v-60.662c0-4.143-3.357-7.5-7.5-7.5s-7.5 3.357-7.5 7.5v21.55h-131.383c22.18-25.509 35.625-58.805 35.625-95.183 0-43.942-19.618-83.386-50.553-110.041h146.312v148.611c0 4.143 3.357 7.5 7.5 7.5s7.5-3.357 7.5-7.5v-187.723c0-22.782-18.534-41.316-41.316-41.316zm-289.602-44.549c2.616-5.687 8.35-9.36 14.609-9.36h120.619c6.259 0 11.993 3.674 14.609 9.36l20.493 44.549h-190.824zm-125.535 29.38h49.013c3.418 0 6.2 2.781 6.2 6.2v8.969h-61.413v-8.969c0-3.419 2.781-6.2 6.2-6.2zm441.453 339.934c0 14.511-11.806 26.316-26.316 26.316h-429.368c-14.51 0-26.316-11.806-26.316-26.316v-24.112h146.478c25.423 21.84 58.456 35.059 94.522 35.059s69.099-13.218 94.522-35.059h146.478zm-110.759-134.295c0 71.815-58.426 130.241-130.241 130.241s-130.241-58.426-130.241-130.241c0-71.814 58.426-130.24 130.241-130.24s130.241 58.425 130.241 130.24zm-56.434-125.041c-21.643-12.824-46.878-20.199-73.807-20.199s-52.164 7.375-73.807 20.199h-85.693c-4.142 0-7.5 3.357-7.5 7.5s3.358 7.5 7.5 7.5h64.812c-30.934 26.655-50.552 66.099-50.552 110.041 0 36.378 13.445 69.673 35.625 95.183h-131.385v-205.224h46.617c4.142 0 7.5-3.357 7.5-7.5s-3.358-7.5-7.5-7.5h-46.617v-24.113c0-14.511 11.806-26.316 26.316-26.316h429.367c14.511 0 26.316 11.806 26.316 26.316v24.112h-167.192z" fill="#000000" data-original="#000000" style=""/><path d="m256 206.569c-50.351 0-91.314 40.964-91.314 91.314s40.963 91.314 91.314 91.314 91.314-40.964 91.314-91.314-40.963-91.314-91.314-91.314zm0 167.629c-42.08 0-76.314-34.234-76.314-76.314s34.234-76.315 76.314-76.315 76.314 34.234 76.314 76.314-34.234 76.315-76.314 76.315z" fill="#000000" data-original="#000000" style=""/></g></g></g></g></svg>
